<mxfile host="65bd71144e">
    <diagram id="wkji4qoLPhG2OQI54eEK" name="Page-1">
        <mxGraphModel dx="1179" dy="976" grid="1" gridSize="10" guides="1" tooltips="1" connect="1" arrows="1" fold="1" page="1" pageScale="1" pageWidth="827" pageHeight="1169" background="#ffffff" math="0" shadow="0">
            <root>
                <mxCell id="0"/>
                <mxCell id="1" parent="0"/>
                <mxCell id="143" value="" style="verticalAlign=top;fontStyle=1;fontSize=24;strokeWidth=2;fillColor=none;strokeColor=#333333;fontColor=#333333;" parent="1" vertex="1">
                    <mxGeometry x="-730" y="240" width="250" height="270" as="geometry"/>
                </mxCell>
                <mxCell id="128" value="" style="verticalAlign=top;fontStyle=1;fontSize=24;strokeWidth=2;fillColor=none;strokeColor=#333333;fontColor=#333333;" parent="1" vertex="1">
                    <mxGeometry x="-470" y="240" width="372" height="300" as="geometry"/>
                </mxCell>
                <mxCell id="150" value="" style="verticalAlign=top;fontStyle=1;fontSize=24;strokeWidth=2;fillColor=none;strokeColor=#333333;fontColor=#333333;" parent="1" vertex="1">
                    <mxGeometry x="-398" y="280" width="290" height="250" as="geometry"/>
                </mxCell>
                <mxCell id="135" style="edgeStyle=none;html=1;strokeColor=#333333;" parent="1" source="3" target="16" edge="1">
                    <mxGeometry relative="1" as="geometry"/>
                </mxCell>
                <mxCell id="3" value="" style="shape=mxgraph.cisco.routers.router;sketch=0;html=1;pointerEvents=1;dashed=0;fillColor=#036897;strokeColor=#ffffff;strokeWidth=2;verticalLabelPosition=bottom;verticalAlign=top;align=center;outlineConnect=0;fontColor=#030303;" parent="1" vertex="1">
                    <mxGeometry x="-498" y="365" width="78" height="53" as="geometry"/>
                </mxCell>
                <mxCell id="133" style="edgeStyle=none;html=1;strokeColor=#333333;" parent="1" source="16" target="25" edge="1">
                    <mxGeometry relative="1" as="geometry"/>
                </mxCell>
                <mxCell id="134" style="edgeStyle=none;html=1;strokeColor=#333333;" parent="1" source="16" target="24" edge="1">
                    <mxGeometry relative="1" as="geometry"/>
                </mxCell>
                <mxCell id="16" value=".10" style="shape=mxgraph.cisco.switches.workgroup_switch;sketch=0;html=1;pointerEvents=1;dashed=0;fillColor=#036897;strokeColor=#ffffff;strokeWidth=2;verticalLabelPosition=bottom;verticalAlign=top;align=center;outlineConnect=0;fontColor=#030303;" parent="1" vertex="1">
                    <mxGeometry x="-368" y="365" width="101" height="50" as="geometry"/>
                </mxCell>
                <mxCell id="24" value=".30&lt;br&gt;Web Server" style="shape=mxgraph.cisco.computers_and_peripherals.pc;sketch=0;html=1;pointerEvents=1;dashed=0;fillColor=#036897;strokeColor=#ffffff;strokeWidth=2;verticalLabelPosition=bottom;verticalAlign=top;align=center;outlineConnect=0;fontColor=#030303;" parent="1" vertex="1">
                    <mxGeometry x="-224" y="305" width="78" height="70" as="geometry"/>
                </mxCell>
                <mxCell id="25" value=".20&lt;br&gt;Cache Server" style="shape=mxgraph.cisco.directors.content_engine_(cache_director);sketch=0;html=1;pointerEvents=1;dashed=0;fillColor=#036897;strokeColor=#ffffff;strokeWidth=2;verticalLabelPosition=bottom;verticalAlign=top;align=center;outlineConnect=0;fontColor=#030303;" parent="1" vertex="1">
                    <mxGeometry x="-230" y="425" width="90" height="64" as="geometry"/>
                </mxCell>
                <mxCell id="142" style="edgeStyle=none;html=1;strokeColor=#333333;fontColor=#333333;" parent="1" source="137" target="3" edge="1">
                    <mxGeometry relative="1" as="geometry"/>
                </mxCell>
                <mxCell id="137" value="&lt;font color=&quot;#333333&quot;&gt;Access Point&lt;/font&gt;" style="shape=mxgraph.cisco.misc.access_point;html=1;pointerEvents=1;dashed=0;fillColor=#036897;strokeColor=#ffffff;strokeWidth=2;verticalLabelPosition=top;verticalAlign=bottom;align=center;outlineConnect=0;labelPosition=center;" parent="1" vertex="1">
                    <mxGeometry x="-608.5" y="440" width="75" height="34" as="geometry"/>
                </mxCell>
                <mxCell id="141" style="edgeStyle=none;html=1;strokeColor=#333333;fontColor=#333333;" parent="1" source="138" target="3" edge="1">
                    <mxGeometry relative="1" as="geometry"/>
                </mxCell>
                <mxCell id="138" value="Switch" style="shape=mxgraph.cisco.switches.workgroup_switch;sketch=0;html=1;pointerEvents=1;dashed=0;fillColor=#036897;strokeColor=#ffffff;strokeWidth=2;verticalLabelPosition=top;verticalAlign=bottom;align=center;outlineConnect=0;fontColor=#030303;labelPosition=center;" parent="1" vertex="1">
                    <mxGeometry x="-608.5" y="289.99999999999994" width="101" height="50" as="geometry"/>
                </mxCell>
                <mxCell id="140" value="or" style="text;strokeColor=none;align=center;fillColor=none;html=1;verticalAlign=middle;whiteSpace=wrap;rounded=0;fontColor=#333333;fontSize=18;" parent="1" vertex="1">
                    <mxGeometry x="-588" y="375" width="60" height="30" as="geometry"/>
                </mxCell>
                <mxCell id="148" value="&lt;font style=&quot;font-size: 18px&quot;&gt;10.0.0.0/24&lt;/font&gt;" style="text;html=1;resizable=0;autosize=1;align=center;verticalAlign=middle;points=[];fillColor=none;strokeColor=none;rounded=0;fontColor=#030303;" parent="1" vertex="1">
                    <mxGeometry x="-730" y="200" width="110" height="40" as="geometry"/>
                </mxCell>
                <mxCell id="149" value="&lt;span style=&quot;font-size: 18px;&quot;&gt;172.16.0.0/24&lt;/span&gt;" style="text;html=1;resizable=0;autosize=1;align=center;verticalAlign=middle;points=[];fillColor=none;strokeColor=none;rounded=0;fontColor=#030303;" parent="1" vertex="1">
                    <mxGeometry x="-470" y="200" width="130" height="40" as="geometry"/>
                </mxCell>
                <mxCell id="132" value="&lt;font style=&quot;font-size: 18px&quot;&gt;VLAN10&lt;/font&gt;" style="text;html=1;resizable=0;autosize=1;align=center;verticalAlign=middle;points=[];fillColor=none;strokeColor=none;rounded=0;fontSize=24;fontColor=#333333;" parent="1" vertex="1">
                    <mxGeometry x="-398" y="280" width="80" height="40" as="geometry"/>
                </mxCell>
                <mxCell id="152" style="edgeStyle=none;html=1;strokeColor=#333333;fontSize=18;fontColor=#333333;" parent="1" source="151" target="138" edge="1">
                    <mxGeometry relative="1" as="geometry"/>
                </mxCell>
                <mxCell id="153" style="edgeStyle=none;html=1;strokeColor=#333333;fontSize=18;fontColor=#333333;" parent="1" source="151" target="137" edge="1">
                    <mxGeometry relative="1" as="geometry"/>
                </mxCell>
                <mxCell id="151" value="Router" style="shape=mxgraph.cisco.routers.router;sketch=0;html=1;pointerEvents=1;dashed=0;fillColor=#036897;strokeColor=#ffffff;strokeWidth=2;verticalLabelPosition=bottom;verticalAlign=top;align=center;outlineConnect=0;fontColor=#030303;" parent="1" vertex="1">
                    <mxGeometry x="-720" y="365" width="78" height="53" as="geometry"/>
                </mxCell>
                <mxCell id="156" value=".254" style="text;strokeColor=none;align=center;fillColor=none;html=1;verticalAlign=middle;whiteSpace=wrap;rounded=0;fontSize=12;fontColor=#333333;" parent="1" vertex="1">
                    <mxGeometry x="-462" y="418" width="42" height="25" as="geometry"/>
                </mxCell>
            </root>
        </mxGraphModel>
    </diagram>
</mxfile>